<?xml version="1.0" encoding="iso-8859-1"?>
<!-- Generator: Adobe Illustrator 19.0.0, SVG Export Plug-In . SVG Version: 6.00 Build 0)  -->
<svg version="1.1" id="Layer_1" xmlns="http://www.w3.org/2000/svg" xmlns:xlink="http://www.w3.org/1999/xlink" x="0px" y="0px"
	 viewBox="0 0 512 512" style="enable-background:new 0 0 512 512;" xml:space="preserve">
<path style="fill:#CCCCCC;" d="M313.438,276.946c-23.102,40.297-79.939,41.785-79.939,41.785l-0.012-0.024
	c-0.584-1.072-27.162-50.216-4.311-90.073C252.289,188.338,367.798,3.858,416.252,0C437.401,43.774,336.551,236.649,313.438,276.946
	z"/>
<path style="fill:#B3B3B3;" d="M416.252,0L233.499,318.732l-0.012-0.024c-0.584-1.072-27.162-50.216-4.311-90.073
	C252.289,188.338,367.798,3.858,416.252,0z"/>
<path style="fill:#995C0D;" d="M207.507,372.974c-1.508,0-3.034-0.382-4.435-1.185c-4.28-2.454-5.759-7.912-3.304-12.19
	l177.382-309.36c2.455-4.28,7.914-5.756,12.19-3.306c4.28,2.454,5.759,7.912,3.306,12.19L215.262,368.485
	C213.612,371.363,210.603,372.974,207.507,372.974z"/>
<path style="fill:#2BA5F7;" d="M257.208,402.505h-15.409c12.932,0,23.399-10.479,23.399-23.399c0-6.466-2.62-12.313-6.847-16.54
	c-4.239-4.239-10.086-6.859-16.552-6.859h-34.283h-75.854c-12.92,0-23.399,10.479-23.399,23.399c0,6.466,2.62,12.313,6.859,16.54
	c4.227,4.239,10.086,6.859,16.54,6.859h-15.409c-12.92,0-23.399,10.467-23.399,23.399v32.259h187.755v-32.259
	C280.607,412.972,270.14,402.505,257.208,402.505z"/>
<path style="fill:#666666;" d="M280.607,439.444v49.157c0,12.92-10.467,23.399-23.399,23.399H116.252
	c-12.92,0-23.399-10.479-23.399-23.399v-49.157H280.607z"/>
<path style="fill:#2197D8;" d="M145.176,379.106c0-12.92,10.479-23.399,23.399-23.399h-36.915c-12.92,0-23.399,10.479-23.399,23.399
	c0,6.466,2.62,12.313,6.859,16.54c4.227,4.239,10.086,6.859,16.54,6.859h-15.409c-12.92,0-23.399,10.467-23.399,23.399v13.539
	h42.869v-13.539c0-12.932,10.479-23.399,23.399-23.399h9.455c-6.454,0-12.313-2.62-16.54-6.859
	C147.796,391.419,145.176,385.572,145.176,379.106z"/>
<path style="fill:#4D4D4D;" d="M159.121,512h-42.869c-12.92,0-23.399-10.479-23.399-23.399v-49.157h42.869v49.157
	C135.721,501.521,146.2,512,159.121,512z"/>
<g>
</g>
<g>
</g>
<g>
</g>
<g>
</g>
<g>
</g>
<g>
</g>
<g>
</g>
<g>
</g>
<g>
</g>
<g>
</g>
<g>
</g>
<g>
</g>
<g>
</g>
<g>
</g>
<g>
</g>
</svg>
